<svg width="26" height="24" viewBox="0 0 26 24" fill="none" xmlns="http://www.w3.org/2000/svg">
<path d="M18.625 1.25098C20.3158 1.25098 21.9373 1.92262 23.1328 3.11816C24.3284 4.31371 25 5.93522 25 7.62598C25 10.2613 23.2639 12.3176 21.4004 14.1436L13 22.5439L4.59766 14.1416L4.24902 13.7988C2.51684 12.0719 1 10.1089 1 7.62598C1 5.93522 1.67164 4.31371 2.86719 3.11816C4.06273 1.92262 5.68424 1.25098 7.375 1.25098C8.42472 1.25098 9.29069 1.39937 10.1094 1.75586C10.9314 2.11389 11.7375 2.69549 12.6465 3.60449C12.8417 3.79975 13.1583 3.79975 13.3535 3.60449C14.2625 2.69549 15.0686 2.11389 15.8906 1.75586C16.7093 1.39937 17.5753 1.25098 18.625 1.25098Z" stroke="black" stroke-opacity="0.8" stroke-linecap="round" stroke-linejoin="round"/>
</svg>
