<svg width="18" height="17" viewBox="0 0 18 17" fill="none" xmlns="http://www.w3.org/2000/svg">
<g clip-path="url(#clip0_272_5869)">
<path d="M7.83438 14.1667C7.83432 14.2983 7.87094 14.4273 7.94013 14.5393C8.00932 14.6513 8.10834 14.7418 8.22609 14.8006L9.64276 15.509C9.75077 15.5629 9.8708 15.5884 9.99143 15.5829C10.1121 15.5775 10.2293 15.5413 10.332 15.4777C10.4347 15.4142 10.5194 15.3255 10.5782 15.22C10.637 15.1145 10.6678 14.9958 10.6677 14.875V9.91667C10.6679 9.5656 10.7984 9.2271 11.0339 8.96679L16.1502 3.30792C16.2419 3.20631 16.3022 3.08032 16.3238 2.94517C16.3454 2.81002 16.3274 2.6715 16.272 2.54637C16.2165 2.42124 16.126 2.31485 16.0114 2.24007C15.8968 2.16529 15.7629 2.12532 15.626 2.125H2.87605C2.73906 2.12505 2.60503 2.16482 2.49018 2.23949C2.37534 2.31417 2.28461 2.42054 2.22899 2.54572C2.17337 2.67091 2.15524 2.80954 2.1768 2.94482C2.19836 3.0801 2.25868 3.20622 2.35046 3.30792L7.46817 8.96679C7.70372 9.2271 7.83422 9.5656 7.83438 9.91667V14.1667Z" stroke="#808080" stroke-width="1.41667" stroke-linecap="round" stroke-linejoin="round"/>
</g>
<defs>
<clipPath id="clip0_272_5869">
<rect width="17" height="17" fill="white" transform="translate(0.75)"/>
</clipPath>
</defs>
</svg>
