<svg width="25" height="24" viewBox="0 0 25 24" fill="none" xmlns="http://www.w3.org/2000/svg">
<path d="M8.5 22C9.05228 22 9.5 21.5523 9.5 21C9.5 20.4477 9.05228 20 8.5 20C7.94772 20 7.5 20.4477 7.5 21C7.5 21.5523 7.94772 22 8.5 22Z" stroke="#FFF2E0" stroke-width="2" stroke-linecap="round" stroke-linejoin="round"/>
<path d="M19.5 22C20.0523 22 20.5 21.5523 20.5 21C20.5 20.4477 20.0523 20 19.5 20C18.9477 20 18.5 20.4477 18.5 21C18.5 21.5523 18.9477 22 19.5 22Z" stroke="#FFF2E0" stroke-width="2" stroke-linecap="round" stroke-linejoin="round"/>
<path d="M2.5498 2.0498H4.5498L7.2098 14.4698C7.30738 14.9247 7.56048 15.3313 7.92552 15.6197C8.29056 15.908 8.74471 16.0602 9.2098 16.0498H18.9898C19.445 16.0491 19.8863 15.8931 20.2408 15.6076C20.5954 15.3222 20.8419 14.9243 20.9398 14.4798L22.5898 7.0498H5.6198" stroke="#FFF2E0" stroke-width="2" stroke-linecap="round" stroke-linejoin="round"/>
</svg>
