<svg width="24" height="25" viewBox="0 0 24 25" fill="none" xmlns="http://www.w3.org/2000/svg">
<path d="M8 22.4502C8.55228 22.4502 9 22.0025 9 21.4502C9 20.8979 8.55228 20.4502 8 20.4502C7.44772 20.4502 7 20.8979 7 21.4502C7 22.0025 7.44772 22.4502 8 22.4502Z" stroke="black" stroke-width="2" stroke-linecap="round" stroke-linejoin="round"/>
<path d="M19 22.4502C19.5523 22.4502 20 22.0025 20 21.4502C20 20.8979 19.5523 20.4502 19 20.4502C18.4477 20.4502 18 20.8979 18 21.4502C18 22.0025 18.4477 22.4502 19 22.4502Z" stroke="black" stroke-width="2" stroke-linecap="round" stroke-linejoin="round"/>
<path d="M2.04999 2.5H4.04999L6.70999 14.92C6.80757 15.3749 7.06066 15.7815 7.4257 16.0699C7.79074 16.3582 8.24489 16.5103 8.70999 16.5H18.49C18.9452 16.4993 19.3865 16.3433 19.741 16.0578C20.0956 15.7724 20.3421 15.3745 20.44 14.93L22.09 7.5H5.11999" stroke="black" stroke-width="2" stroke-linecap="round" stroke-linejoin="round"/>
</svg>
