<svg width="44" height="45" viewBox="0 0 44 45" fill="none" xmlns="http://www.w3.org/2000/svg">
<path d="M20.167 37.1665C16.9478 37.1763 13.8425 35.9758 11.467 33.8031C9.09147 31.6304 7.61927 28.6443 7.34238 25.437C7.06549 22.2297 8.00413 19.0355 9.97214 16.4879C11.9402 13.9402 14.7938 12.2253 17.967 11.6832C28.417 9.6665 31.167 8.71317 34.8337 4.1665C36.667 7.83317 38.5004 11.8298 38.5004 18.8332C38.5004 28.9165 29.737 37.1665 20.167 37.1665Z" stroke="black" stroke-opacity="0.5" stroke-width="2" stroke-linecap="round" stroke-linejoin="round"/>
<path d="M3.66663 39C3.66663 33.5 7.05829 29.1733 12.98 28C17.4166 27.12 22 24.3333 23.8333 22.5" stroke="black" stroke-opacity="0.5" stroke-width="2" stroke-linecap="round" stroke-linejoin="round"/>
</svg>
