<svg width="24" height="25" viewBox="0 0 24 25" fill="none" xmlns="http://www.w3.org/2000/svg">
<path d="M3.424 21.603C2.816 20.6324 2.34667 19.5124 2.016 18.243C1.68533 16.963 1.52 15.587 1.52 14.115C1.52 12.643 1.68533 11.267 2.016 9.98702C2.34667 8.69636 2.816 7.57636 3.424 6.62702H4.88C4.24 7.75769 3.77067 8.94169 3.472 10.179C3.17333 11.4057 3.024 12.7177 3.024 14.115C3.024 15.5124 3.17333 16.8297 3.472 18.067C3.77067 19.2937 4.24 20.4724 4.88 21.603H3.424ZM11.5346 18.627C10.66 18.627 9.87596 18.403 9.18263 17.955C8.49996 17.507 7.95596 16.8564 7.55063 16.003C7.15596 15.1497 6.95863 14.115 6.95863 12.899C6.95863 11.683 7.15596 10.6484 7.55063 9.79502C7.95596 8.94169 8.49996 8.29102 9.18263 7.84302C9.87596 7.39502 10.66 7.17102 11.5346 7.17102C12.3986 7.17102 13.1773 7.39502 13.8706 7.84302C14.564 8.29102 15.108 8.94169 15.5026 9.79502C15.8973 10.6484 16.0946 11.683 16.0946 12.899C16.0946 14.115 15.8973 15.1497 15.5026 16.003C15.108 16.8564 14.564 17.507 13.8706 17.955C13.1773 18.403 12.3986 18.627 11.5346 18.627ZM11.5346 17.203C12.1213 17.203 12.6333 17.043 13.0706 16.723C13.5186 16.403 13.8653 15.923 14.1106 15.283C14.3666 14.643 14.4946 13.8484 14.4946 12.899C14.4946 11.9497 14.3666 11.155 14.1106 10.515C13.8653 9.87502 13.5186 9.39502 13.0706 9.07502C12.6333 8.75502 12.1213 8.59502 11.5346 8.59502C10.948 8.59502 10.4306 8.75502 9.98263 9.07502C9.53463 9.39502 9.18263 9.87502 8.92663 10.515C8.68129 11.155 8.55863 11.9497 8.55863 12.899C8.55863 13.8484 8.68129 14.643 8.92663 15.283C9.18263 15.923 9.53463 16.403 9.98263 16.723C10.4306 17.043 10.948 17.203 11.5346 17.203ZM19.6305 21.603H18.1745C18.8252 20.4724 19.2998 19.2937 19.5985 18.067C19.8972 16.8297 20.0465 15.5124 20.0465 14.115C20.0465 12.7177 19.8972 11.4057 19.5985 10.179C19.2998 8.94169 18.8252 7.75769 18.1745 6.62702H19.6305C20.2598 7.57636 20.7345 8.69636 21.0545 9.98702C21.3852 11.267 21.5505 12.643 21.5505 14.115C21.5505 15.587 21.3852 16.963 21.0545 18.243C20.7345 19.5124 20.2598 20.6324 19.6305 21.603Z" fill="black"/>
</svg>
