<svg width="200" height="158" viewBox="0 0 200 158" fill="none" xmlns="http://www.w3.org/2000/svg">
<path d="M101.149 127.463C127.897 127.463 149.581 105.779 149.581 79.0306C149.581 52.2824 127.897 30.5986 101.149 30.5986C74.4005 30.5986 52.7168 52.2824 52.7168 79.0306C52.7168 105.779 74.4005 127.463 101.149 127.463Z" fill="white"/>
<path d="M164.426 69.5927V64.7228C164.426 63.7941 164.057 62.9035 163.401 62.2469C162.744 61.5902 161.853 61.2213 160.925 61.2213H148.566C147.637 61.2213 146.746 60.8524 146.09 60.1958C145.433 59.5391 145.064 58.6485 145.064 57.7198V52.8499C145.064 51.9213 145.433 51.0307 146.09 50.374C146.746 49.7174 147.637 49.3485 148.566 49.3485H148.956C149.416 49.3485 149.871 49.2579 150.296 49.0819C150.721 48.906 151.107 48.648 151.432 48.3229C151.757 47.9978 152.015 47.6118 152.191 47.1869C152.367 46.7621 152.457 46.3068 152.457 45.847V40.9771C152.457 40.5172 152.367 40.0619 152.191 39.6371C152.015 39.2123 151.757 38.8263 151.432 38.5011C151.107 38.176 150.721 37.9181 150.296 37.7421C149.871 37.5662 149.416 37.4756 148.956 37.4756H59.1609C58.2323 37.4756 57.3416 37.8445 56.685 38.5011C56.0283 39.1578 55.6594 40.0484 55.6594 40.9771V45.847C55.6594 46.3068 55.75 46.7621 55.926 47.1869C56.1019 47.6118 56.3598 47.9978 56.685 48.3229C57.0101 48.648 57.3961 48.906 57.821 49.0819C58.2458 49.2579 58.7011 49.3485 59.1609 49.3485C59.6207 49.3485 60.076 49.439 60.5009 49.615C60.9257 49.7909 61.3117 50.0489 61.6368 50.374C61.962 50.6991 62.2199 51.0852 62.3958 51.51C62.5718 51.9348 62.6624 52.3901 62.6624 52.8499V57.7198C62.6624 58.1797 62.5718 58.635 62.3958 59.0598C62.2199 59.4846 61.962 59.8706 61.6368 60.1958C61.3117 60.5209 60.9257 60.7788 60.5009 60.9548C60.076 61.1307 59.6207 61.2213 59.1609 61.2213H45.6204C44.6918 61.2213 43.8011 61.5902 43.1445 62.2469C42.4878 62.9035 42.1189 63.7941 42.1189 64.7228V69.5927C42.1189 70.5214 42.4878 71.412 43.1445 72.0686C43.8011 72.7253 44.6918 73.0942 45.6204 73.0942H50.9335C51.3933 73.0942 51.8486 73.1847 52.2734 73.3607C52.6983 73.5367 53.0843 73.7946 53.4094 74.1197C53.7345 74.4449 53.9925 74.8309 54.1684 75.2557C54.3444 75.6805 54.435 76.1358 54.435 76.5957V81.4656C54.435 81.9254 54.3444 82.3807 54.1684 82.8056C53.9925 83.2304 53.7345 83.6164 53.4094 83.9415C53.0843 84.2667 52.6983 84.5246 52.2734 84.7005C51.8486 84.8765 51.3933 84.9671 50.9335 84.9671H50.9206C50.4608 84.9671 50.0055 85.0576 49.5807 85.2336C49.1559 85.4096 48.7699 85.6675 48.4447 85.9926C48.1196 86.3178 47.8617 86.7038 47.6857 87.1286C47.5097 87.5534 47.4192 88.0087 47.4192 88.4686V93.3385C47.4192 94.2671 47.7881 95.1577 48.4447 95.8144C49.1014 96.471 49.992 96.8399 50.9207 96.8399H51.6893C52.618 96.8399 53.5086 97.2088 54.1653 97.8655C54.8219 98.5221 55.1908 99.4128 55.1908 100.341V105.211C55.1908 105.671 55.1003 106.126 54.9243 106.551C54.7483 106.976 54.4904 107.362 54.1653 107.687C53.8401 108.012 53.4541 108.27 53.0293 108.446C52.6045 108.622 52.1492 108.713 51.6893 108.713H39.0737C38.1451 108.713 37.2545 109.082 36.5978 109.738C35.9412 110.395 35.5723 111.286 35.5723 112.214V117.084C35.5723 117.544 35.6628 117.999 35.8388 118.424C36.0148 118.849 36.2727 119.235 36.5978 119.56C36.923 119.885 37.309 120.143 37.7338 120.319C38.1586 120.495 38.6139 120.586 39.0737 120.586H150.836C151.296 120.586 151.751 120.495 152.176 120.319C152.601 120.143 152.987 119.885 153.312 119.56C153.637 119.235 153.895 118.849 154.071 118.424C154.247 117.999 154.337 117.544 154.337 117.084V112.214C154.337 111.286 153.968 110.395 153.312 109.738C152.655 109.082 151.764 108.713 150.836 108.713H147.8C147.34 108.713 146.885 108.622 146.46 108.446C146.035 108.27 145.649 108.012 145.324 107.687C144.999 107.362 144.741 106.976 144.565 106.551C144.389 106.126 144.298 105.671 144.298 105.211V100.341C144.298 99.8816 144.389 99.4263 144.565 99.0014C144.741 98.5766 144.999 98.1906 145.324 97.8655C145.649 97.5403 146.035 97.2824 146.46 97.1065C146.885 96.9305 147.34 96.8399 147.8 96.8399H154.958C155.418 96.8399 155.873 96.7493 156.298 96.5734C156.723 96.3974 157.109 96.1395 157.434 95.8144C157.759 95.4892 158.017 95.1032 158.193 94.6784C158.369 94.2536 158.46 93.7983 158.46 93.3384V88.4686C158.46 88.0087 158.369 87.5534 158.193 87.1286C158.017 86.7038 157.759 86.3178 157.434 85.9926C157.109 85.6675 156.723 85.4096 156.298 85.2336C155.873 85.0576 155.418 84.9671 154.958 84.9671H152.787C151.858 84.9671 150.968 84.5982 150.311 83.9415C149.654 83.2849 149.285 82.3942 149.285 81.4656V76.5957C149.285 75.667 149.654 74.7764 150.311 74.1197C150.968 73.4631 151.858 73.0942 152.787 73.0942H160.925C161.853 73.0942 162.744 72.7253 163.401 72.0686C164.057 71.412 164.426 70.5214 164.426 69.5927Z" fill="white"/>
<path d="M120.971 36.1572H130.3" stroke="#B1B1B1" stroke-width="0.923077" stroke-miterlimit="10" stroke-linecap="round"/>
<path d="M120.971 38.8462H130.3" stroke="#B1B1B1" stroke-width="0.923077" stroke-miterlimit="10" stroke-linecap="round"/>
<path d="M120.971 41.5352H130.3" stroke="#B1B1B1" stroke-width="0.923077" stroke-miterlimit="10" stroke-linecap="round"/>
<path d="M127.434 110.999H136.763" stroke="#B1B1B1" stroke-width="0.923077" stroke-miterlimit="10" stroke-linecap="round"/>
<path d="M127.434 113.688H136.763" stroke="#B1B1B1" stroke-width="0.923077" stroke-miterlimit="10" stroke-linecap="round"/>
<path d="M127.434 116.376H136.763" stroke="#B1B1B1" stroke-width="0.923077" stroke-miterlimit="10" stroke-linecap="round"/>
<path d="M50.0078 66.5229H59.3374" stroke="#B1B1B1" stroke-width="0.923077" stroke-miterlimit="10" stroke-linecap="round"/>
<path d="M50.0078 69.2119H59.3374" stroke="#B1B1B1" stroke-width="0.923077" stroke-miterlimit="10" stroke-linecap="round"/>
<path d="M50.0078 71.9009H59.3374" stroke="#B1B1B1" stroke-width="0.923077" stroke-miterlimit="10" stroke-linecap="round"/>
<path d="M152.398 102.111L116.251 105.747L80.1029 102.111C79.9511 102.096 79.8104 102.024 79.7081 101.911C79.6057 101.798 79.5491 101.651 79.5491 101.498L78.6973 99.0072L79.5491 58.1904L116.251 61.8827L152.952 58.1904L153.762 99.3395L152.952 101.498C152.952 101.651 152.896 101.798 152.793 101.911C152.691 102.024 152.55 102.096 152.398 102.111Z" fill="#14397C"/>
<path d="M153.762 99.3397L116.251 102.96L78.6973 99.0074L79.5491 56.0832C79.5491 55.9972 79.5671 55.9121 79.602 55.8335C79.6369 55.7549 79.6879 55.6845 79.7517 55.6268C79.8155 55.5691 79.8906 55.5254 79.9724 55.4985C80.0541 55.4717 80.1405 55.4623 80.2261 55.4709L116.251 59.0951L152.275 55.4709C152.361 55.4623 152.447 55.4717 152.529 55.4985C152.611 55.5254 152.686 55.5691 152.75 55.6268C152.813 55.6845 152.864 55.7549 152.899 55.8335C152.934 55.9121 152.952 55.9972 152.952 56.0832L153.762 99.3397Z" fill="#1439C2"/>
<path d="M115.955 100.08L152.026 96.5704L150.522 55.647L118.648 58.8537L115.955 100.08Z" fill="#14397C"/>
<path d="M115.955 54.2946L147.487 50.75L148.948 96.8694L115.955 100.079V54.2946Z" fill="#14397C"/>
<path d="M117.727 53.9995L84.5703 53.4087L86.3426 98.3071L115.955 100.079L117.727 53.9995Z" fill="#14397C"/>
<path d="M116.25 51.8581L147.782 48.3135L149.998 94.5412L116.25 97.6427V51.8581Z" fill="#BCBCBC"/>
<path d="M116.25 96.1119V97.6423L149.998 94.5408L149.925 93.0171L116.25 96.1119Z" fill="#EFEFEF"/>
<path d="M116.251 51.8579L83.0938 51.2671L84.8661 96.1655L116.251 97.6425V51.8579Z" fill="#BCBCBC"/>
<path d="M84.8672 96.1658L116.252 97.6427V96.0661L84.8672 94.5889V96.1658Z" fill="#EFEFEF"/>
<path d="M86.9546 81.1857C87.0494 84.7948 88.316 88.275 90.563 91.1009C92.81 93.9267 95.9155 95.9447 99.4104 96.8501L113.224 97.5001V53.7779C113.224 53.7779 102.787 54.519 91.9645 51.4252L86.1738 51.322L86.9546 81.1857ZM133.864 96.0239C137.274 93.5912 140.017 90.3404 141.842 86.5705C143.667 82.8006 144.515 78.6323 144.309 74.449L143.043 48.8462L135.396 49.7058C128.405 53.2452 119.857 55.4634 119.857 55.4634V97.3112L133.864 96.0239Z" fill="#EFEFEF"/>
<path d="M116.25 51.8582C116.25 51.8582 133.899 47.2797 139.216 40.7812L140.702 70.8438C140.99 76.6714 139.23 82.416 135.726 87.0819C132.223 91.7478 127.197 95.0408 121.521 96.39L116.25 97.6428V51.8582Z" fill="#BCBCBC"/>
<path d="M120.942 51.8581L116.25 97.6427C116.25 97.6427 122.224 97.1913 122.693 97.0506C127.939 92.2381 130.926 84.1522 130.214 76.969L127.355 48.1138C125.456 48.8929 123.595 49.5672 121.955 50.1206C121.353 51.1668 120.942 51.8581 120.942 51.8581Z" fill="#EFEFEF"/>
<path d="M116.25 51.8582C116.25 51.8582 121.345 43.292 121.936 40.7812L125.522 76.969C125.914 80.9244 125.265 84.9135 123.638 88.5402C122.012 92.1669 119.465 95.305 116.25 97.6428L116.25 51.8582ZM116.25 51.8582C116.25 51.8582 101.702 52.892 89.1484 47.4274L89.9808 79.266C90.0798 83.0528 91.4684 86.6925 93.9168 89.583C96.3653 92.4735 99.727 94.4418 103.446 95.1622L116.25 97.6428L116.25 51.8582Z" fill="#BCBCBC"/>
<path d="M116.252 51.8579C116.506 55.6733 116.639 59.4887 116.73 63.3041C116.787 65.2118 116.799 67.1195 116.833 69.0271L116.867 74.7502L116.834 80.4733C116.8 82.381 116.789 84.2887 116.732 86.1964C116.642 90.0118 116.508 93.8271 116.252 97.6425C115.995 93.8271 115.862 90.0118 115.771 86.1964C115.714 84.2887 115.703 82.381 115.669 80.4733L115.637 74.7502L115.671 69.0271C115.704 67.1195 115.717 65.2118 115.773 63.3041C115.864 59.4887 115.997 55.6733 116.252 51.8579ZM94.7598 58.3056C96.3116 58.4369 97.8334 58.6237 99.3546 58.8024L103.9 59.3467C105.413 59.5248 106.925 59.6735 108.443 59.822C109.963 59.9666 111.481 60.0561 113.037 60.1887C111.522 60.5548 109.971 60.7561 108.413 60.7893C106.858 60.8232 105.303 60.7496 103.759 60.569C102.218 60.3883 100.69 60.1152 99.182 59.7512C97.6694 59.3961 96.19 58.9125 94.7598 58.3056ZM94.7598 64.8765C96.3116 65.0078 97.8334 65.1945 99.3546 65.3733L103.9 65.9176C105.413 66.0957 106.925 66.2444 108.443 66.3929C109.963 66.5375 111.481 66.6271 113.037 66.7596C111.522 67.1257 109.971 67.327 108.413 67.3602C106.858 67.3941 105.303 67.3205 103.759 67.1399C102.218 66.9592 100.69 66.6861 99.182 66.3221C97.6694 65.967 96.19 65.4834 94.7598 64.8765ZM94.7598 71.4474C96.3116 71.5787 97.8334 71.7655 99.3546 71.9442L103.9 72.4886C105.413 72.6667 106.925 72.8154 108.443 72.9638C109.963 73.1084 111.481 73.198 113.037 73.3305C111.522 73.6966 109.971 73.898 108.413 73.9311C106.858 73.965 105.303 73.8914 103.759 73.7108C102.218 73.5301 100.69 73.257 99.182 72.8931C97.6694 72.5379 96.19 72.0543 94.7598 71.4474ZM94.7598 78.0183C96.3116 78.1496 97.8334 78.3364 99.3546 78.5151L103.9 79.0595C105.413 79.2376 106.925 79.3863 108.443 79.5347C109.963 79.6794 111.481 79.7689 113.037 79.9014C111.522 80.2675 109.971 80.4689 108.413 80.502C106.858 80.5359 105.303 80.4623 103.759 80.2817C102.218 80.101 100.69 79.8279 99.182 79.464C97.6694 79.1088 96.19 78.6252 94.7598 78.0183ZM94.7598 84.5893C96.3116 84.7205 97.8334 84.9073 99.3546 85.086L103.9 85.6304C105.413 85.8085 106.925 85.9572 108.443 86.1056C109.963 86.2503 111.481 86.3398 113.037 86.4723C111.522 86.8384 109.971 87.0398 108.413 87.0729C106.858 87.1068 105.303 87.0332 103.759 86.8527C102.218 86.6719 100.69 86.3988 99.182 86.0349C97.6694 85.6797 96.19 85.1961 94.7598 84.5893Z" fill="#EFEFEF"/>
<path d="M138.208 59.1851L131.04 60.3939C130.96 60.4093 130.879 60.409 130.8 60.3928C130.72 60.3767 130.645 60.3451 130.578 60.2999C130.511 60.2547 130.454 60.1967 130.409 60.1293C130.365 60.0619 130.334 59.9864 130.318 59.9071L130.081 54.7291C130.065 54.6498 130.066 54.5682 130.082 54.489C130.098 54.4099 130.129 54.3346 130.175 54.2676C130.22 54.2006 130.278 54.1432 130.345 54.0986C130.413 54.0541 130.488 54.0232 130.567 54.0078L137.828 52.5157C137.907 52.5003 137.989 52.5006 138.068 52.5168C138.147 52.5329 138.222 52.5645 138.289 52.6097C138.356 52.6549 138.414 52.7129 138.458 52.7803C138.503 52.8477 138.534 52.9232 138.549 53.0025L138.695 58.4637C138.726 58.6239 138.692 58.7899 138.601 58.9252C138.509 59.0605 138.368 59.154 138.208 59.1851ZM134.139 71.9422L126.97 73.1511C126.891 73.1665 126.809 73.1661 126.73 73.1499C126.651 73.1338 126.576 73.1022 126.509 73.057C126.442 73.0118 126.384 72.9539 126.34 72.8865C126.295 72.8191 126.264 72.7435 126.249 72.6642L126.011 67.4863C125.98 67.326 126.014 67.16 126.105 67.0248C126.197 66.8895 126.338 66.796 126.498 66.7649L133.758 65.2728C133.838 65.2574 133.919 65.2578 133.998 65.2739C134.078 65.29 134.153 65.3216 134.22 65.3668C134.287 65.412 134.344 65.47 134.389 65.5374C134.433 65.6048 134.464 65.6803 134.48 65.7596L134.625 71.2208C134.641 71.3001 134.64 71.3817 134.624 71.4609C134.608 71.5401 134.577 71.6153 134.531 71.6823C134.486 71.7493 134.428 71.8067 134.361 71.8513C134.293 71.8959 134.218 71.9268 134.139 71.9422Z" fill="#1439C2"/>
<path d="M126.498 66.7645C126.338 66.7956 126.197 66.8891 126.105 67.0244C126.014 67.1597 125.98 67.3257 126.011 67.4859L126.249 72.6638C126.28 72.8241 126.374 72.9654 126.509 73.0567C126.644 73.148 126.81 73.1818 126.97 73.1507L129.789 72.6754L129.149 66.2197L126.498 66.7645Z" fill="#EFEFEF"/>
<path d="M136.945 84.6992L129.777 85.9081C129.617 85.9392 129.451 85.9054 129.315 85.8141C129.18 85.7228 129.087 85.5815 129.056 85.4212L128.818 80.2433C128.803 80.164 128.803 80.0824 128.819 80.0032C128.835 79.924 128.867 79.8488 128.912 79.7818C128.957 79.7148 129.015 79.6574 129.083 79.6128C129.15 79.5682 129.225 79.5373 129.305 79.5219L136.565 78.0298C136.644 78.0144 136.726 78.0148 136.805 78.0309C136.884 78.0471 136.96 78.0786 137.027 78.1239C137.093 78.1691 137.151 78.227 137.195 78.2944C137.24 78.3618 137.271 78.4374 137.286 78.5167L137.432 83.9778C137.447 84.0572 137.447 84.1388 137.431 84.218C137.415 84.2971 137.383 84.3724 137.338 84.4394C137.293 84.5063 137.235 84.5638 137.167 84.6084C137.1 84.6529 137.025 84.6838 136.945 84.6992Z" fill="#1439C2"/>
<path d="M129.305 79.5217C129.145 79.5529 129.003 79.6463 128.912 79.7816C128.821 79.9169 128.787 80.0829 128.818 80.2431L129.056 85.4211C129.073 85.5089 129.109 85.5919 129.162 85.6642C129.215 85.7364 129.283 85.7961 129.362 85.8391C129.967 83.7158 130.288 81.5216 130.316 79.314L129.305 79.5217Z" fill="#EFEFEF"/>
<path d="M96.0131 122.598C98.2154 122.598 100.001 120.813 100.001 118.61C100.001 116.408 98.2154 114.623 96.0131 114.623C93.8107 114.623 92.0254 116.408 92.0254 118.61C92.0254 120.813 93.8107 122.598 96.0131 122.598Z" fill="#B1B1B1"/>
<path d="M90.6946 111.152C91.8366 111.152 92.7623 110.226 92.7623 109.084C92.7623 107.942 91.8366 107.017 90.6946 107.017C89.5527 107.017 88.627 107.942 88.627 109.084C88.627 110.226 89.5527 111.152 90.6946 111.152Z" fill="#B1B1B1"/>
<path d="M104.221 114.105C105.853 114.105 107.175 112.783 107.175 111.152C107.175 109.52 105.853 108.198 104.221 108.198C102.59 108.198 101.268 109.52 101.268 111.152C101.268 112.783 102.59 114.105 104.221 114.105Z" fill="#B1B1B1"/>
<path d="M53.5786 100.399C56.199 100.399 58.3232 98.2747 58.3232 95.6543C58.3232 93.0339 56.199 90.9097 53.5786 90.9097C50.9582 90.9097 48.834 93.0339 48.834 95.6543C48.834 98.2747 50.9582 100.399 53.5786 100.399Z" fill="#B1B1B1"/>
<path d="M44.5124 94.7465C45.8773 94.7465 46.9838 93.64 46.9838 92.2751C46.9838 90.9102 45.8773 89.8037 44.5124 89.8037C43.1475 89.8037 42.041 90.9102 42.041 92.2751C42.041 93.64 43.1475 94.7465 44.5124 94.7465Z" fill="#B1B1B1"/>
<path d="M46.781 85.2993C47.5683 85.2993 48.2065 84.6611 48.2065 83.8738C48.2065 83.0865 47.5683 82.4482 46.781 82.4482C45.9937 82.4482 45.3555 83.0865 45.3555 83.8738C45.3555 84.6611 45.9937 85.2993 46.781 85.2993Z" fill="#B1B1B1"/>
<path d="M54.6734 88.2999C56.5609 88.2999 58.0909 86.7698 58.0909 84.8824C58.0909 82.9949 56.5609 81.4648 54.6734 81.4648C52.7859 81.4648 51.2559 82.9949 51.2559 84.8824C51.2559 86.7698 52.7859 88.2999 54.6734 88.2999Z" fill="#B1B1B1"/>
<path d="M83.4419 46.9658C86.0623 46.9658 88.1865 44.8416 88.1865 42.2212C88.1865 39.6008 86.0623 37.4766 83.4419 37.4766C80.8215 37.4766 78.6973 39.6008 78.6973 42.2212C78.6973 44.8416 80.8215 46.9658 83.4419 46.9658Z" fill="#B1B1B1"/>
<path d="M83.6335 35.0189C84.9984 35.0189 86.1049 33.9125 86.1049 32.5476C86.1049 31.1826 84.9984 30.0762 83.6335 30.0762C82.2686 30.0762 81.1621 31.1826 81.1621 32.5476C81.1621 33.9125 82.2686 35.0189 83.6335 35.0189Z" fill="#B1B1B1"/>
<path d="M100.096 36.1307C101.277 36.1307 102.235 35.173 102.235 33.9916C102.235 32.8102 101.277 31.8525 100.096 31.8525C98.9147 31.8525 97.957 32.8102 97.957 33.9916C97.957 35.173 98.9147 36.1307 100.096 36.1307Z" fill="#B1B1B1"/>
<path d="M92.3123 33.3389C93.0996 33.3389 93.7378 32.7006 93.7378 31.9133C93.7378 31.126 93.0996 30.4878 92.3123 30.4878C91.525 30.4878 90.8867 31.126 90.8867 31.9133C90.8867 32.7006 91.525 33.3389 92.3123 33.3389Z" fill="#B1B1B1"/>
<path d="M93.9703 43.1119C95.8577 43.1119 97.3878 41.5818 97.3878 39.6944C97.3878 37.8069 95.8577 36.2769 93.9703 36.2769C92.0828 36.2769 90.5527 37.8069 90.5527 39.6944C90.5527 41.5818 92.0828 43.1119 93.9703 43.1119Z" fill="#B1B1B1"/>
<path d="M78.07 93.8959L73.2109 91.1245L70.4395 95.9836L75.2985 98.755L78.07 93.8959Z" fill="white"/>
<path d="M96.6184 92.6441C99.6706 90.3425 101.972 87.1875 103.231 83.5781C104.49 79.9688 104.651 76.0671 103.692 72.3664C102.734 68.6657 100.7 65.3323 97.8475 62.7876C94.9949 60.2429 91.4517 58.6013 87.6661 58.0702C83.8804 57.5392 80.0223 58.1426 76.5796 59.8042C73.1369 61.4658 70.2642 64.1109 68.3247 67.4051C66.3853 70.6992 65.4662 74.4945 65.6837 78.3111C65.9011 82.1276 67.2454 85.7939 69.5465 88.8465C71.0745 90.8737 72.9869 92.58 75.1744 93.868C77.362 95.156 79.7818 96.0005 82.2958 96.3531C84.8097 96.7058 87.3685 96.5597 89.826 95.9233C92.2835 95.2869 94.5916 94.1726 96.6184 92.6441ZM72.5555 86.5807C70.7019 84.1231 69.6187 81.171 69.443 78.0978C69.2673 75.0246 70.0068 71.9682 71.5682 69.3153C73.1295 66.6624 75.4425 64.5321 78.2146 63.1938C80.9867 61.8555 84.0934 61.3694 87.1419 61.7968C90.1903 62.2242 93.0435 63.546 95.3407 65.5951C97.6379 67.6441 99.2758 70.3284 100.047 73.3084C100.819 76.2884 100.689 79.4302 99.6753 82.3366C98.6611 85.243 96.8079 87.7834 94.3499 89.6365C91.0543 92.1205 86.907 93.1941 82.82 92.621C78.733 92.048 75.0409 89.8753 72.5555 86.5807Z" fill="#363636"/>
<path opacity="0.76" d="M84.981 92.7741C93.5763 92.7741 100.544 85.8063 100.544 77.211C100.544 68.6158 93.5763 61.6479 84.981 61.6479C76.3858 61.6479 69.418 68.6158 69.418 77.211C69.418 85.8063 76.3858 92.7741 84.981 92.7741Z" fill="white"/>
<path d="M96.0926 77.894C95.9444 80.3049 95.0161 82.6022 93.4477 84.4392C91.8794 86.2762 89.7561 87.5533 87.3983 88.0777C85.0404 88.6022 82.576 88.3455 80.3769 87.3465C78.1777 86.3474 76.3632 84.6602 75.207 82.5395" stroke="white" stroke-width="3.07692" stroke-miterlimit="10"/>
<path d="M76.7668 99.5771L68.9838 95.1379C68.6885 94.9695 68.3127 95.0723 68.1443 95.3676L56.7606 115.326C56.5922 115.621 56.695 115.997 56.9902 116.166L64.7732 120.605C65.0685 120.773 65.4443 120.67 65.6127 120.375L76.9964 100.417C77.1648 100.121 77.062 99.7455 76.7668 99.5771Z" fill="#363636"/>
<path d="M65.6131 120.375L76.9969 100.417C77.0369 100.346 77.0627 100.269 77.0729 100.189C77.083 100.109 77.0772 100.027 77.0559 99.9493C77.0346 99.8714 76.9981 99.7984 76.9486 99.7345C76.899 99.6707 76.8374 99.6172 76.7672 99.5772L74.8315 98.4731C74.9733 98.554 75.0771 98.6879 75.1201 98.8453C75.1632 99.0027 75.1419 99.1708 75.0611 99.3125L63.6773 119.271C63.6373 119.341 63.5838 119.403 63.52 119.453C63.4561 119.502 63.3831 119.539 63.3052 119.56C63.2272 119.581 63.1458 119.587 63.0657 119.577C62.9855 119.567 62.9081 119.541 62.8379 119.501L64.7737 120.605C64.8439 120.645 64.9213 120.671 65.0014 120.681C65.0816 120.691 65.163 120.685 65.2409 120.664C65.3189 120.643 65.3919 120.606 65.4557 120.557C65.5196 120.507 65.573 120.446 65.6131 120.375Z" fill="black"/>
<path d="M58.6324 116.394L70.0161 96.4353C70.0562 96.3651 70.1096 96.3034 70.1735 96.2539C70.2373 96.2044 70.3103 96.1679 70.3883 96.1466C70.4662 96.1253 70.5476 96.1195 70.6278 96.1296C70.708 96.1397 70.7854 96.1656 70.8555 96.2056L73.0056 97.4319L68.9837 95.138C68.842 95.0571 68.6739 95.0359 68.5164 95.0789C68.359 95.122 68.2252 95.2258 68.1443 95.3676L56.7605 115.326C56.6797 115.468 56.6584 115.636 56.7015 115.794C56.7446 115.951 56.8484 116.085 56.9902 116.166L58.862 117.233C58.7918 117.193 58.7302 117.14 58.6806 117.076C58.6311 117.012 58.5946 116.939 58.5733 116.861C58.552 116.783 58.5462 116.702 58.5564 116.622C58.5665 116.542 58.5923 116.464 58.6324 116.394Z" fill="black"/>
<path d="M61.0137 118.459L64.7746 120.605H64.7749L61.0137 118.459Z" fill="black"/>
<path d="M56.9525 114.252L66.4417 119.664C66.5835 119.745 66.6874 119.879 66.7304 120.037C66.7735 120.194 66.7523 120.362 66.6714 120.504L65.7656 122.092C65.2329 123.026 64.3511 123.71 63.3141 123.994C62.277 124.277 61.1698 124.138 60.2359 123.605L56.7201 121.6C56.2577 121.336 55.8518 120.984 55.5255 120.563C55.1992 120.142 54.959 119.662 54.8185 119.148C54.678 118.635 54.64 118.099 54.7067 117.57C54.7734 117.042 54.9435 116.532 55.2073 116.07L56.1131 114.482C56.1939 114.34 56.3278 114.236 56.4852 114.193C56.6427 114.15 56.8107 114.171 56.9525 114.252Z" fill="white"/>
<path d="M57.0465 117.133L57.9523 115.545C58.0332 115.404 58.167 115.3 58.3245 115.257C58.4819 115.214 58.65 115.235 58.7918 115.316L66.5383 119.734C66.5081 119.708 66.4755 119.684 66.4408 119.665L56.9516 114.252C56.8098 114.171 56.6417 114.15 56.4843 114.193C56.3269 114.236 56.193 114.34 56.1121 114.482L55.2063 116.07C54.6737 117.004 54.5338 118.111 54.8175 119.148C55.1013 120.185 55.7853 121.067 56.7192 121.6L58.3589 122.535C57.4924 121.972 56.8739 121.099 56.6299 120.095C56.386 119.091 56.535 118.031 57.0465 117.133Z" fill="black"/>
<path d="M65.7655 122.092L66.6713 120.504C66.7522 120.362 66.7734 120.194 66.7303 120.037C66.6873 119.879 66.5834 119.745 66.4417 119.664L64.4976 118.556C64.6388 118.637 64.7421 118.771 64.7849 118.928C64.8276 119.085 64.8064 119.253 64.7257 119.394L63.8199 120.982C63.2872 121.916 62.4054 122.6 61.3684 122.884C60.3313 123.167 59.2241 123.028 58.2902 122.495L56.7168 121.598L56.7201 121.6L60.2358 123.605C60.6982 123.869 61.2081 124.039 61.7362 124.105C62.2644 124.172 62.8005 124.134 63.314 123.994C63.8275 123.853 64.3082 123.613 64.7289 123.287C65.1495 122.96 65.5018 122.554 65.7655 122.092Z" fill="#DDDDDD"/>
</svg>
